SplineFontDB: 3.2
FontName: Hatami
FullName: Hatami Regular
FamilyName: Hatami
Weight: Regular
Copyright: Copyright (c) 2020, cancrizans
UComments: "2020-2-20: Created with FontForge (http://fontforge.org)"
Version: 001.000
ItalicAngle: 0
UnderlinePosition: -100
UnderlineWidth: 50
Ascent: 800
Descent: 200
InvalidEm: 0
LayerCount: 2
Layer: 0 0 "Back" 1
Layer: 1 0 "Fore" 0
XUID: [1021 449 -834741842 1043]
StyleMap: 0x0000
FSType: 0
OS2Version: 0
OS2_WeightWidthSlopeOnly: 0
OS2_UseTypoMetrics: 1
CreationTime: 1582197146
ModificationTime: 1583161285
PfmFamily: 33
TTFWeight: 400
TTFWidth: 5
LineGap: 90
VLineGap: 0
OS2TypoAscent: 0
OS2TypoAOffset: 1
OS2TypoDescent: 0
OS2TypoDOffset: 1
OS2TypoLinegap: 90
OS2WinAscent: 0
OS2WinAOffset: 1
OS2WinDescent: 0
OS2WinDOffset: 1
HheadAscent: 0
HheadAOffset: 1
HheadDescent: 0
HheadDOffset: 1
OS2Vendor: 'PfEd'
Lookup: 4 0 1 "multigraphs" { "multigraphs-1"  } ['liga' ('DFLT' <'dflt' > 'latn' <'dflt' > ) ]
Lookup: 6 8 0 "'calt' r to low stem r" { "'calt' r to low stem r-1"  } ['calt' ('DFLT' <'dflt' > 'latn' <'dflt' > ) ]
Lookup: 1 8 0 "r to low tail r" { "r to low tail r-1"  } []
Lookup: 1 8 0 "r to branch stem r" { "r to branch stem r-1"  } []
Lookup: 6 8 0 "'calt' r to branch stem r" { "'calt' Alternative contestuali in Latino lookup 4-1"  } ['calt' ('DFLT' <'dflt' > 'latn' <'dflt' > ) ]
Lookup: 1 8 0 "r to rising stem r" { "r to rising stem r-1"  } []
Lookup: 6 8 0 "'calt' r to rising stem r" { "'calt' Alternative contestuali in Latino lookup 6-1"  } ['calt' ('DFLT' <'dflt' > 'latn' <'dflt' > ) ]
Lookup: 258 0 0 "kern-1" { "kern-1-sub" [150,15,4] } ['kern' ('DFLT' <'dflt' > 'latn' <'dflt' > ) ]
MarkAttachClasses: 1
DEI: 91125
KernClass2: 16 13 "kern-1-sub"
 12 K g k Oacute
 3 d t
 33 S Z s z Agrave Aacute Acircumflex
 3 w y
 7 b p Eth
 24 r Ccedilla Egrave Eacute
 10 m n ntilde
 3 C E
 1 N
 16 Edieresis Igrave
 10 X x Ograve
 5 F P R
 9 Idieresis
 1 h
 11 quotesingle
 20 d t Edieresis Igrave
 25 K N X g k x Ograve Oacute

StartChar: K
Encoding: 75 75 0
Width: 610
VWidth: 0
UnlinkRmOvrlpSave: 1
Flags: W
HStem: 679 20G<349.717 432>
LayerCount: 2
Fore
SplineSet
360 568.736328125 m 5
 389.666992188 572.44921875 l 5
 420.052734375 403.857421875 479.373046875 291.849609375 592.920898438 150.653320312 c 5
 568 136.736328125 l 5
 543.079101562 122.818359375 l 5
 426.626953125 267.624023438 361.947265625 389.614257812 330.333007812 565.0234375 c 5
 360 568.736328125 l 5
36 272.736328125 m 5
 17.28515625 292.275390625 l 5
 187.818359375 405.706054688 294.09375 519.342773438 405.33984375 699 c 5
 432 687.536132812 l 5
 458.66015625 676.072265625 l 5
 344.96875 492.465820312 231.51953125 370.799804688 54.71484375 253.197265625 c 5
 36 272.736328125 l 5
EndSplineSet
EndChar

StartChar: y
Encoding: 121 121 4
Width: 463
VWidth: 0
Flags: W
HStem: -25 50<167.568 315.006> 329 50<162.184 306.534> 598.6 50<188.519 332.47>
VStem: 35 61<100.899 259.79 323.108 461.733> 371 60<84.7453 262.514>
LayerCount: 2
Fore
SplineSet
96 178.836914062 m 5
 100 98 156 25 235 25 c 4
 329.591796875 25 371 85.890625 371 179 c 0
 371 267.587890625 311.688476562 329 239 329 c 0
 178.415039062 329 130.390625 295.225585938 108.646484375 243.475585938 c 0
 101.125976562 225.577148438 96 205.728515625 96 185 c 1
 96 178.836914062 l 5
95.2080078125 323.108398438 m 1
 130.33984375 356.8671875 180.713867188 379 239 379 c 0
 358.311523438 379 431 282.412109375 431 179 c 0
 431 76.109375 376.822265625 -25 235 -25 c 4
 94 -25 35 107 35 209 c 6
 35 250.04296875 l 1
 35 307 l 2
 35 461.397460938 88.376953125 648.599609375 250 648.599609375 c 0
 336.063476562 648.599609375 376.760742188 616.791015625 407.375976562 576.334960938 c 1
 382 563 l 1
 356.624023438 549.6640625 l 1
 331.239257812 583.208984375 315.936523438 598.599609375 250 598.599609375 c 0
 161.229492188 598.599609375 99.3984375 478.626953125 95.2080078125 323.108398438 c 1
EndSplineSet
Validated: 1
EndChar

StartChar: t
Encoding: 116 116 6
Width: 596
VWidth: 0
UnlinkRmOvrlpSave: 1
Flags: W
HStem: -25 50<165.315 264.128> 319 50<393.256 468.341> 338.308 47.3857<44.8451 85.2186> 642.119 20G<333.752 369.2>
VStem: 78.5 60<52.527 188.911> 344.7 60<125.707 311.381 622.467 651.087>
LayerCount: 2
Fore
SplineSet
333.602539062 312.490234375 m 1x9c
 213.962890625 286.991210938 138.5 190.748046875 138.5 118 c 0
 138.5 67.5068359375 168.791992188 25 215.200195312 25 c 0
 272.9296875 25 344.700195312 120.618164062 344.700195312 222 c 0
 344.700195312 253.135742188 340.865234375 283.515625 333.602539062 312.490234375 c 1x9c
63.400390625 623.599609375 m 1
 75.54296875 646.459960938 l 1
 147.780249685 619.814416933 210.567708882 582.139007582 261.384246381 536.004593684 c 1
 298.745943901 576.328802197 327.390059553 620.122115234 340.11328125 662.119140625 c 1
 369.200195312 656 l 1
 398.287109375 649.880859375 l 1
 382.175947143 596.698768324 346.851657775 543.270756577 300.981283935 495.569853788 c 1
 334.212486752 457.283168865 360.200961164 414.570937594 377.857421875 368.543945312 c 1
 384.07421875 368.837890625 390.528320312 369 396.700195312 369 c 0
 488.998046875 369 541.767578125 316.994140625 570.12109375 251.481445312 c 1
 541.900390625 243 l 1
 513.6796875 234.517578125 l 1
 489.232421875 291.004882812 456.216796875 319 396.700195312 319 c 0xdc
 395.754882812 319 394.401367188 318.9921875 393.255859375 318.981445312 c 1
 400.748046875 287.731445312 404.700195312 255.063476562 404.700195312 222 c 0
 404.700195312 116.228515625 335.669921875 -25 215.200195312 -25 c 0
 116.407226562 -25 78.5 58.4765625 78.5 118 c 0
 78.5 214.723632812 171.041992188 328.999023438 317.782226562 360.727539062 c 1
 303.666081395 395.20225901 284.299610022 427.493454945 260.20302784 457.01631688 c 1
 196.399431994 402.032378871 119.930060701 358.585355343 47.673828125 338.307617188 c 1
 38.099609375 362 l 1
 28.525390625 385.693359375 l 1xbc
 92.4727914309 403.639303483 163.429270947 445.666565197 222.135829794 497.697428141 c 1
 176.105558244 540.800441158 118.418262892 575.966063522 51.2578125 600.739257812 c 1
 63.400390625 623.599609375 l 1
EndSplineSet
EndChar

StartChar: macron
Encoding: 175 175 8
Width: 1000
VWidth: 0
HStem: 808.995 70<-2 359.001>
LayerCount: 2
Fore
SplineSet
-2 878.995117188 m 5
 359.000976562 879 l 5
 359.004882812 809 l 5
 -2 808.995117188 l 5
 -2 878.995117188 l 5
EndSplineSet
Validated: 1
EndChar

StartChar: b
Encoding: 98 98 9
Width: 533
VWidth: 0
Flags: W
HStem: -23 50<169.151 362.849> 325 48.7418<172.236 238.1 298.099 362.839> 574 50<48 238.913 298.913 490>
VStem: 18 60<107.932 243.969> 238.1 59.999<371.705 574> 454 60<107.932 243.603>
LayerCount: 2
Fore
SplineSet
78 176 m 0
 78 94.7626953125 161.461914062 27 266 27 c 0
 370.538085938 27 454 94.76171875 454 176 c 0
 454 257.23828125 370.538085938 325 266 325 c 0
 161.461914062 325 78 257.23828125 78 176 c 0
48 599 m 5
 48 624 l 5
 490 624 l 5
 490 599 l 5
 490 574 l 5
 298.913085938 574 l 5
 298.098896129 373.331748718 l 1
 418.786716368 360.703989582 514 277.880841797 514 176 c 0
 514 65.23828125 401.461914062 -23 266 -23 c 0
 130.538085938 -23 18 65.2373046875 18 176 c 0
 18 279.059484083 115.429039633 362.617773014 238.099875413 373.741750388 c 1
 238.913085938 574 l 5
 48 574 l 5
 48 599 l 5
EndSplineSet
Validated: 1
EndChar

StartChar: currency
Encoding: 164 164 10
Width: 284
VWidth: 0
Flags: W
HStem: 95.1074 181.129
VStem: 158.948 58.1035<227.04 265.266>
LayerCount: 2
Fore
SplineSet
87 112 m 1
 64.8857421875 128.893554688 l 1
 104.704101562 165.091796875 143.31640625 225.661132812 158.948242188 276.236328125 c 1
 188 270 l 1
 217.051757812 263.763671875 l 1
 198.68359375 204.338867188 157.295898438 138.908203125 109.114257812 95.107421875 c 1
 87 112 l 1
EndSplineSet
Validated: 1
EndChar

StartChar: yen
Encoding: 165 165 11
Width: 299
VWidth: 0
Flags: W
HStem: 57.1221 237.351
VStem: 126.896 58.1035<245.276 283.503> 208.018 58.9824<167.782 230.088>
LayerCount: 2
Fore
SplineSet
158.508789062 73.5849609375 m 5
 135.931640625 90.0478515625 l 5
 172.513671875 124.887695312 193.40234375 172.887695312 208.017578125 238.169921875 c 5
 237.508789062 233.584960938 l 5
 267 229 l 5
 251.615234375 160.283203125 228.50390625 102.282226562 181.0859375 57.1220703125 c 5
 158.508789062 73.5849609375 l 5
54.9482421875 130.236328125 m 1
 32.833984375 147.129882812 l 1
 72.65234375 183.328125 111.264648438 243.897460938 126.896484375 294.47265625 c 1
 155.948242188 288.236328125 l 1
 185 282 l 1
 166.631835938 222.575195312 125.244140625 157.14453125 77.0625 113.34375 c 1
 54.9482421875 130.236328125 l 1
EndSplineSet
Validated: 1
EndChar

StartChar: brokenbar
Encoding: 166 166 13
Width: 421
VWidth: 0
Flags: W
HStem: 88 50<204.284 275.974>
VStem: 323.013 57.9746<201.608 244.114>
LayerCount: 2
Fore
SplineSet
23.10546875 88.189453125 m 1
 90 154 137.7421875 212.040039062 163.61328125 275.088867188 c 1
 220.953125 260.454101562 l 1
 209.844726562 226.3359375 202.2109375 192.001283403 202.2109375 174.666015625 c 3
 202.2109375 150.999059965 213 138 241 138 c 0
 268 138 298.010742188 177.309570312 323.012695312 255.44140625 c 1
 352 249 l 1
 380.987304688 242.55859375 l 1
 357.989257812 170.690429688 318.33203125 88 243 88 c 0
 195.91796875 88 160.788085938 106.17578125 147.903320312 139.587890625 c 1
 131.240234375 118.934570312 88.42578125 76.2392578125 70 57 c 1
 23.10546875 88.189453125 l 1
EndSplineSet
Validated: 1
EndChar

StartChar: Aacute
Encoding: 193 193 16
Width: 540
VWidth: 0
Flags: W
HStem: -113 50<33.1906 169.563>
VStem: 240 60<32.8662 354>
LayerCount: 2
Fore
SplineSet
17.3092549902 -31.0105343 m 1
 42.1195356628 -49.0309094803 72.0016853381 -63 105 -63 c 0
 190.194335938 -63 240 22 240 172 c 2
 240 354 l 1
 300 354 l 5
 300 172 l 6
 300 7.1834525438 239.842773438 -113 105 -113 c 0
 48.9668960472 -113 3.73640918464 -91.4553418069 -30.5212412871 -65.3132134483 c 1
 17.3092549902 -31.0105343 l 1
EndSplineSet
Validated: 1
EndChar

StartChar: Adieresis
Encoding: 196 196 22
Width: 463
VWidth: 0
Flags: W
HStem: -25 50<150.994 298.432> 329 50<159.466 303.816> 598.6 50<133.53 277.481>
VStem: 35 60<84.7453 262.514> 370 61<100.899 259.79 323.108 461.733>
LayerCount: 2
Fore
SplineSet
370 178.836914062 m 5
 370 185 l 5
 370 205.728515625 364.874023438 225.577148438 357.353515625 243.475585938 c 4
 335.609375 295.225585938 287.584960938 329 227 329 c 4
 154.311523438 329 95 267.587890625 95 179 c 4
 95 85.890625 136.408203125 25 231 25 c 4
 310 25 366 98 370 178.836914062 c 5
370.791992188 323.108398438 m 5
 366.6015625 478.626953125 304.770507812 598.599609375 216 598.599609375 c 4
 150.063476562 598.599609375 134.760742188 583.208984375 109.375976562 549.6640625 c 5
 84 563 l 5
 58.6240234375 576.334960938 l 5
 89.2392578125 616.791015625 129.936523438 648.599609375 216 648.599609375 c 4
 377.623046875 648.599609375 431 461.397460938 431 307 c 6
 431 250.04296875 l 5
 431 209 l 6
 431 107 372 -25 231 -25 c 4
 89.177734375 -25 35 76.109375 35 179 c 4
 35 282.412109375 107.688476562 379 227 379 c 4
 285.286132812 379 335.66015625 356.8671875 370.791992188 323.108398438 c 5
EndSplineSet
Validated: 1
EndChar

StartChar: quotesingle
Encoding: 39 39 23
Width: 343
VWidth: 0
UnlinkRmOvrlpSave: 1
Flags: W
HStem: 487 50<256.822 317.148>
VStem: 15.8623 301.286
LayerCount: 2
Fore
SplineSet
230 706 m 1
 258.216796875 697.508789062 l 1
 217.18359375 602.817382812 153.530273438 539.448242188 50.1376953125 479.48046875 c 1
 33 500 l 1
 15.8623046875 520.51953125 l 1
 112.469726562 576.551757812 164.81640625 629.182617188 201.783203125 714.491210938 c 1
 230 706 l 1
178.1484375 623.600585938 m 1
 205.87890625 633.139648438 l 1
 238.225585938 567.838867188 263.661132812 537 317.1484375 537 c 1
 317.1484375 512 l 1
 317.1484375 487 l 1
 222.635742188 487 182.071289062 550.161132812 150.41796875 614.061523438 c 1
 178.1484375 623.600585938 l 1
EndSplineSet
EndChar

StartChar: n
Encoding: 110 110 24
Width: 486
VWidth: 0
Flags: W
VStem: 381.69 59.0879<550.35 620.286>
LayerCount: 2
Fore
SplineSet
411.234375 623.600585938 m 5
 440.778320312 619.256835938 l 5
 387.94921875 369.740234375 273.481445312 169.431640625 103.012695312 -15.2431640625 c 5
 79.234375 0 l 5
 55.4560546875 15.2431640625 l 5
 220.987304688 194.568359375 330.51953125 386.259765625 381.690429688 627.944335938 c 5
 411.234375 623.600585938 l 5
EndSplineSet
Validated: 1
EndChar

StartChar: m
Encoding: 109 109 25
Width: 486
VWidth: 0
UnlinkRmOvrlpSave: 1
Flags: W
HStem: 632.514 20G<198.885 240>
VStem: 211.036 57.9277<599.864 641.061> 381.69 59.0879<550.35 620.286>
LayerCount: 2
Fore
SplineSet
346 423 m 5
 334.858398438 399.788085938 l 5
 249.673828125 428.182617188 197.756835938 464.346679688 157.719726562 524.942382812 c 5
 184 537 l 5
 210.280273438 549.05859375 l 5
 244.243164062 497.653320312 280.326171875 471.817382812 357.141601562 446.211914062 c 5
 346 423 l 5
123 473 m 5
 102.61328125 491.33984375 l 5
 155.21484375 531.946289062 186.733398438 577.470703125 211.036132812 652.513671875 c 5
 240 646 l 5
 268.963867188 639.486328125 l 5
 242.772460938 558.61328125 204.78515625 502.0546875 143.38671875 454.659179688 c 5
 123 473 l 5
EndSplineSet
Refer: 24 110 N 1 0 0 1 0 0 2
EndChar

StartChar: r
Encoding: 114 114 26
Width: 544
VWidth: 0
UnlinkRmOvrlpSave: 1
Flags: W
HStem: 174 50<145.709 345.237> 371.8 50<186.556 363.444> 683.8 50<186.556 363.444>
VStem: 44 60<261.843 375.005> 49.7998 60<489.165 616.435> 366 60<245.534 278> 440.2 60<489.165 616.435>
LayerCount: 2
Fore
SplineSet
124 424 m 1xf6
 150.78515625 412.741210938 l 1
 124.672851562 369.59765625 104 355.446289062 104 314 c 0
 104 256.012695312 162.020507812 224 244 224 c 0
 323.541992188 224 366 247.8125 366 278 c 1
 396 278 l 1
 426 278 l 1
 426 199.892578125 326.458007812 174 244 174 c 0
 145.967773438 174 44 217.975585938 44 314 c 0
 44 372.553710938 77.3271484375 402.40234375 97.21484375 435.258789062 c 1
 124 424 l 1xf6
EndSplineSet
Refer: 60 216 N 1 0 0 1 0 0 2
Substitution2: "r to low tail r-1" Ccedilla
Substitution2: "r to branch stem r-1" Egrave
Substitution2: "r to rising stem r-1" Eacute
EndChar

StartChar: h
Encoding: 104 104 27
Width: 544
VWidth: 0
UnlinkRmOvrlpSave: 1
Flags: W
HStem: 0 50<90 241.104 301.104 444> 371.8 50<186.556 363.444> 683.8 50<186.556 363.444>
VStem: 49.7998 60<489.165 616.435> 241.104 60<50 366> 440.2 60<489.165 616.435>
LayerCount: 2
Fore
SplineSet
444 25 m 1
 444 0 l 1
 90 0 l 1
 90 25 l 1
 90 50 l 1
 241.104492188 50 l 1
 241.000976562 366.302734375 l 5
 271 366.151367188 l 5
 300.999023438 366 l 5
 301.104492188 50 l 1
 444 50 l 1
 444 25 l 1
EndSplineSet
Refer: 15 192 N 1 0 0 1 0 0 2
EndChar

StartChar: Ccedilla
Encoding: 199 199 28
Width: 544
VWidth: 0
UnlinkRmOvrlpSave: 1
Flags: W
HStem: 205 50<-245 -47.5793> 371.8 50<186.556 363.444> 683.8 50<186.556 363.444>
VStem: 49.7998 60<489.165 616.435> 51 54<378.562 524> 440.2 60<489.165 616.435>
LayerCount: 2
Fore
SplineSet
80 551 m 1xec
 105 534 l 1
 105 417.171875 78 205 -119 205 c 6
 -245 205 l 1
 -245 255 l 1
 -131 255 l 6
 10 255 51 381.721679688 51 524 c 1
 80 551 l 1xec
EndSplineSet
Refer: 60 216 N 1 0 0 1 0 0 2
EndChar

StartChar: Egrave
Encoding: 200 200 29
Width: 567
VWidth: 0
UnlinkRmOvrlpSave: 1
Flags: W
HStem: 371.8 50<186.556 363.444> 379 50<-46.2989 28.9296> 683.8 50<186.556 363.444>
VStem: 49.7998 60<489.165 616.435> 54 52<455.044 551> 440.2 60<489.165 616.435>
LayerCount: 2
Fore
SplineSet
106 551 m 1x6c
 106 488.3984375 80.0947265625 379 -4 379 c 3
 -66.0322265625 379 -92.046875 426.147460938 -112.473632812 464.958007812 c 1
 -85 475 l 1
 -69 484 l 1
 -47 448 -32.26953125 429 -4 429 c 0
 28.419921875 429 54 477.600585938 54 551 c 1
 106 551 l 1x6c
EndSplineSet
Refer: 60 216 N 1 0 0 1 0 0 2
EndChar

StartChar: Eacute
Encoding: 201 201 30
Width: 544
VWidth: 0
UnlinkRmOvrlpSave: 1
Flags: W
HStem: 371.8 50<186.556 363.444> 683.8 50<186.556 363.444>
VStem: 49.7998 60<489.165 616.435> 52 57<393.687 527> 440.2 60<489.165 616.435>
LayerCount: 2
Fore
SplineSet
82 527 m 1xd8
 109 528 l 1
 109 374 62.4228515625 317.99609375 -48.787109375 225.322265625 c 1
 -70 243 l 1
 -91.212890625 260.677734375 l 1
 13.5771484375 348.002929688 52 380.021484375 52 527 c 1
 82 527 l 1xd8
EndSplineSet
Refer: 60 216 N 1 0 0 1 0 0 2
EndChar

StartChar: period
Encoding: 46 46 31
Width: 190
VWidth: 0
Flags: W
HStem: -206 104<45.7098 140.29>
VStem: 35 116<-194.217 -113.783>
LayerCount: 2
Fore
SplineSet
35 -154 m 0
 35 -125 61 -102 93 -102 c 0
 125 -102 151 -125 151 -154 c 0
 151 -183 125 -206 93 -206 c 0
 61 -206 35 -183 35 -154 c 0
EndSplineSet
Validated: 1
EndChar

StartChar: c
Encoding: 99 99 32
Width: 1000
VWidth: 0
HStem: 146 252<259.135 354.865>
VStem: 221 172<189.375 354.625>
LayerCount: 2
Fore
SplineSet
221 272 m 4
 221 342 260 398 307 398 c 4
 354 398 393 342 393 272 c 4
 393 202 354 146 307 146 c 4
 260 146 221 202 221 272 c 4
EndSplineSet
Validated: 1
EndChar

StartChar: D
Encoding: 68 68 36
Width: 1000
VWidth: 0
HStem: 194 320<348.637 529.363>
VStem: 257 364<281.321 426.679>
LayerCount: 2
Fore
SplineSet
257 354 m 4
 257 442 339 514 439 514 c 4
 539 514 621 442 621 354 c 4
 621 266 539 194 439 194 c 4
 339 194 257 266 257 354 c 4
EndSplineSet
Validated: 1
EndChar

StartChar: F
Encoding: 70 70 37
Width: 180
VWidth: 0
Flags: W
HStem: 505.996 208.609
VStem: 17.9062 58.3594<652.739 704.386>
LayerCount: 2
Fore
SplineSet
149.0859375 522 m 5
 126.0390625 505.99609375 l 5
 72.6171875 559.41796875 38.5810546875 630.838867188 17.90625 702.993164062 c 5
 47.0859375 708.799804688 l 5
 76.265625 714.60546875 l 5
 95.5908203125 647.16015625 127.5546875 582.583007812 172.1328125 538.004882812 c 5
 149.0859375 522 l 5
EndSplineSet
Refer: 52 32 N 1 0 0 1 0 0 2
Refer: 52 32 N 1 0 0 1 0 0 2
Validated: 1
EndChar

StartChar: P
Encoding: 80 80 38
Width: 180
VWidth: 0
Flags: W
HStem: 529.254 154.746
VStem: -2.81152 179.063
LayerCount: 2
Fore
SplineSet
25 538.626953125 m 5
 -2.8115234375 548 l 5
 63.1884765625 684 l 5
 119.251953125 683.036132812 l 5
 176.251953125 550.03515625 l 5
 148 541.626953125 l 5
 119.748046875 533.21875 l 5
 89.259765625 604.358398438 l 5
 52.8115234375 529.25390625 l 5
 25 538.626953125 l 5
EndSplineSet
Validated: 1
EndChar

StartChar: R
Encoding: 82 82 39
Width: 180
VWidth: 0
Flags: W
HStem: 505.996 208.609
VStem: 113.773 58.3594<652.739 704.386>
LayerCount: 2
Fore
SplineSet
40.953125 522 m 5
 17.90625 538.004882812 l 5
 62.484375 582.583007812 94.4482421875 647.16015625 113.7734375 714.60546875 c 5
 142.953125 708.799804688 l 5
 172.1328125 702.993164062 l 5
 151.458007812 630.838867188 117.421875 559.41796875 64 505.99609375 c 5
 40.953125 522 l 5
EndSplineSet
Refer: 52 32 N 1 0 0 1 0 0 2
Validated: 1
EndChar

StartChar: T
Encoding: 84 84 40
Width: 1000
VWidth: 0
HStem: 222 284<427.481 558.519>
VStem: 367 252<284.793 443.207>
LayerCount: 2
Fore
SplineSet
367 364 m 4
 367 442 423 506 493 506 c 4
 563 506 619 442 619 364 c 4
 619 286 563 222 493 222 c 4
 423 222 367 286 367 364 c 4
EndSplineSet
Validated: 1
EndChar

StartChar: H
Encoding: 72 72 41
Width: 1000
VWidth: 0
HStem: 252 204<417.844 576.156>
VStem: 369 256<297.117 410.883>
LayerCount: 2
Fore
SplineSet
369 354 m 4
 369 410 426 456 497 456 c 4
 568 456 625 410 625 354 c 4
 625 298 568 252 497 252 c 4
 426 252 369 298 369 354 c 4
EndSplineSet
Validated: 1
EndChar

StartChar: L
Encoding: 76 76 42
Width: 1000
VWidth: 0
HStem: 248 244<342.92 515.08>
VStem: 275 308<309.442 430.558>
LayerCount: 2
Fore
SplineSet
275 370 m 4
 275 437 344 492 429 492 c 4
 514 492 583 437 583 370 c 4
 583 303 514 248 429 248 c 4
 344 248 275 303 275 370 c 4
EndSplineSet
Validated: 1
EndChar

StartChar: J
Encoding: 74 74 43
Width: 1000
VWidth: 0
HStem: 224 260<394.145 551.855>
VStem: 327 292<286.5 421.5>
LayerCount: 2
Fore
SplineSet
327 354 m 4
 327 426 392 484 473 484 c 4
 554 484 619 426 619 354 c 4
 619 282 554 224 473 224 c 4
 392 224 327 282 327 354 c 4
EndSplineSet
Validated: 1
EndChar

StartChar: ntilde
Encoding: 241 241 44
Width: 486
VWidth: 0
UnlinkRmOvrlpSave: 1
Flags: W
HStem: 399.788 46.4238<307.339 338.218> 719 50<139.507 262.493>
VStem: 52 60<592.23 691.769> 290 60<592.23 691.769> 381.69 59.0879<550.35 620.286>
LayerCount: 2
Fore
SplineSet
112 642 m 0
 112 599.133789062 152.384765625 565 201 565 c 0
 249.615234375 565 290 599.133789062 290 642 c 0
 290 684.865234375 249.615234375 719 201 719 c 0
 152.384765625 719 112 684.865234375 112 642 c 0
52 642 m 0
 52 711.134765625 117.615234375 769 201 769 c 0
 284.384765625 769 350 711.134765625 350 642 c 0
 350 572.865234375 284.384765625 515 201 515 c 0
 117.615234375 515 52 572.865234375 52 642 c 0
346 423 m 1
 334.858398438 399.788085938 l 5
 247 420 196 464 171.439453125 527.883789062 c 5
 197.719726562 539.94140625 l 5
 224 552 l 5
 247 505 280.326171875 471.817382812 357.141601562 446.211914062 c 1
 346 423 l 1
EndSplineSet
Refer: 24 110 N 1 0 0 1 0 0 2
Ligature2: "multigraphs-1" n j
EndChar

StartChar: j
Encoding: 106 106 45
Width: 1000
VWidth: 0
HStem: 251 152<406.233 505.767>
VStem: 384 144<273.25 380.75>
LayerCount: 2
Fore
SplineSet
384 327 m 4
 384 369 416 403 456 403 c 4
 496 403 528 369 528 327 c 4
 528 285 496 251 456 251 c 4
 416 251 384 285 384 327 c 4
EndSplineSet
Validated: 1
EndChar

StartChar: exclam
Encoding: 33 33 46
Width: 208
VWidth: 0
Flags: W
HStem: -5 96<55.123 142.877>
VStem: 46 106<4.68573 81.3143> 57 84<327.111 800> 65 67<192 664.889>
LayerCount: 2
Fore
SplineSet
46 43 m 0xc0
 46 69 70 91 99 91 c 0
 128 91 152 69 152 43 c 0
 152 17 128 -5 99 -5 c 0
 70 -5 46 17 46 43 c 0xc0
57 800 m 1xa0
 141 800 l 5xa0
 132 192 l 1
 65 192 l 1x90
 57 800 l 1xa0
EndSplineSet
Validated: 1
EndChar

StartChar: Aring
Encoding: 197 197 47
Width: 540
VWidth: 0
Flags: W
HStem: -122 50<131.421 197.534>
VStem: 61 60<-64.1864 20.6406> 240 60<157.776 384>
LayerCount: 2
Fore
SplineSet
240 190.166992188 m 1
 240 384 l 5
 300 384 l 5
 300 85 l 2
 300 42 300 -122 167 -122 c 0
 83.4208984375 -122 61 -63.537109375 61 -17 c 0
 61 77.5146484375 200.212890625 116.19140625 229.217773438 157.313476562 c 0
 236.16796875 167.166992188 240 177.251953125 240 190 c 1
 240 190.166992188 l 1
239 95 m 1
 181 44 121 24.1767578125 121 -17 c 0
 121 -45 139.067382812 -72 167 -72 c 0
 211 -72 234.346679688 27.505859375 239 95 c 1
EndSplineSet
Validated: 1
EndChar

StartChar: N
Encoding: 78 78 48
Width: 571
VWidth: 0
UnlinkRmOvrlpSave: 1
Flags: W
HStem: 3 50<142 257.458 333.694 483> 376.441 47.1172<248.056 288.475>
VStem: 375 60<144.73 306.654>
LayerCount: 2
Fore
SplineSet
241 400 m 1
 251.0390625 423.55859375 l 1
 353.897460938 393.12109375 435 342.5703125 435 228 c 0
 435 148.299804688 396.06640625 89.521484375 333.694335938 53 c 1
 483 53 l 1
 483 28 l 1
 483 3 l 1
 142 3 l 1
 139.607421875 52.919921875 l 1
 282.358398438 62.4365234375 375 111.768554688 375 228 c 0
 375 316.831054688 324.102539062 348.87890625 230.9609375 376.44140625 c 1
 241 400 l 1
EndSplineSet
Refer: 49 202 N 1 0 0 1 0 0 2
EndChar

StartChar: Ecircumflex
Encoding: 202 202 49
Width: 571
VWidth: 0
Flags: W
LayerCount: 2
Fore
SplineSet
45 274 m 1
 26.5732421875 293.728515625 l 1
 203.803710938 408.680664062 276.471679688 481.416015625 396.53125 622.463867188 c 1
 421 608 l 1
 445.46875 593.536132812 l 1
 405.261314049 546.299697476 369.532892249 505.922134243 333.09612177 468.749918908 c 5
 286.461639021 423.370938719 l 5
 226.275808684 367.657719542 158.83074322 316.150916618 63.4267578125 254.271484375 c 1
 45 274 l 1
EndSplineSet
Validated: 1
EndChar

StartChar: Edieresis
Encoding: 203 203 50
Width: 706
VWidth: 0
UnlinkRmOvrlpSave: 1
Flags: W
HStem: -25 50<165.315 264.128> 319 50<393.256 468.341> 338.308 47.3857<44.8451 85.2186> 642.119 20G<333.752 369.2>
VStem: 78.5 60<52.527 188.911> 344.7 60<125.707 311.381 622.467 651.087> 522 59<100.04 233.978>
LayerCount: 2
Fore
SplineSet
549.541015625 73.03125 m 1x9e
 592.237304688 78.05078125 634.561523438 72.33203125 672.350585938 47.6875 c 1
 653.861328125 28 l 1
 652.001953125 26.01953125 l 1
 635.372070312 8.3125 l 1
 598.967773438 32.0546875 548.75390625 27.9892578125 501.919921875 8.18359375 c 0
 484.134765625 0.662109375 467.8203125 -8.8544921875 455 -18.5302734375 c 0
 454.328125 -17.912109375 413.981445312 17.970703125 414.72265625 18.5302734375 c 0
 429.919921875 30 446.221542609 41.8867443271 460.181640625 55.927734375 c 0
 504 100 522 121.67578125 522 165 c 0
 522 218 514.197265625 233.784179688 514 234 c 0
 570 252 l 1
 570 252 582 230 581 168 c 0
 580.419921875 132.055664062 568.430664062 100.61328125 549.541015625 73.03125 c 1x9e
EndSplineSet
Refer: 6 116 N 1 0 0 1 0 0 2
LCarets2: 1 0
Ligature2: "multigraphs-1" t r
EndChar

StartChar: Iacute
Encoding: 205 205 54
Width: 770
VWidth: 0
UnlinkRmOvrlpSave: 1
Flags: W
HStem: 308 50<481.763 630.237> 329.095 50<288.129 409.45> 566 50<481.763 630.237> 693.2 20G<306.637 357>
VStem: 327.469 59.0625<632.494 705.442> 373 60<411.517 519.206> 679 60<404.794 519.206>
LayerCount: 2
Fore
SplineSet
433 462 m 0xb6
 433 404.6171875 488.897460938 358 556 358 c 0
 623.100585938 358 679 404.6171875 679 462 c 0
 679 519.3828125 623.102539062 566 556 566 c 0
 488.899414062 566 433 519.3828125 433 462 c 0xb6
373 462 m 0
 373 546.6171875 455.100585938 616 556 616 c 0
 656.897460938 616 739 546.6171875 739 462 c 0
 739 377.3828125 656.899414062 308 556 308 c 0
 455.102539062 308 373 377.381835938 373 462 c 0
45 271 m 1
 25.0810546875 289.694335938 l 1
 216.110351562 431.0390625 285.805664062 519.032226562 327.46875 713.200195312 c 1
 357 708.799804688 l 1
 386.53125 704.399414062 l 1x3a
 342.875976562 500.9453125 260.450195312 396.983398438 64.9189453125 252.305664062 c 1
 45 271 l 1
229 436 m 1
 256.994140625 444.98828125 l 1
 282.293945312 390.270507812 313.014648438 379.094726562 346 379.094726562 c 0
 369.260742188 379.094726562 391.470703125 393.52734375 420.11328125 416.799804688 c 1
 462 381 l 1
 426.642578125 352.272460938 388.436523438 329.094726562 346 329.094726562 c 0x72
 288.985351562 329.094726562 233.776367188 356.13671875 201.005859375 427.01171875 c 1
 229 436 l 1
EndSplineSet
EndChar

StartChar: Icircumflex
Encoding: 206 206 55
Width: 719
VWidth: 0
Flags: W
HStem: 39 50<278.289 423.823>
VStem: 503 60<177.271 351>
LayerCount: 2
Fore
SplineSet
197 165 m 5
 224.256835938 175.443359375 l 5
 254.967773438 119.78125 293.750976562 89 338 89 c 4
 456.911132812 89 503 167.643554688 503 309 c 6
 503 351 l 5
 533 351 l 5
 563 351 l 5
 563 309 l 6
 563 164.348632812 509.088867188 39 338 39 c 4
 256.249023438 39 203.032226562 94.2197265625 169.743164062 154.556640625 c 5
 197 165 l 5
EndSplineSet
Validated: 1
EndChar

StartChar: X
Encoding: 88 88 56
Width: 770
VWidth: 0
UnlinkRmOvrlpSave: 1
Flags: W
HStem: 9 50<354.552 443.767> 308 50<481.763 630.237> 329.095 50<288.129 409.45> 566 50<481.763 630.237> 693.2 20G<306.637 357>
VStem: 288 60<65.8814 141.825> 327.469 59.0625<632.494 705.442> 373 60<411.517 519.206> 502 60<271.272 353.421> 679 60<404.794 519.206>
LayerCount: 2
Fore
SplineSet
502.0078125 353.420898438 m 1x9cc0
 561.9921875 354.578125 l 1
 563.01171875 317.880859375 562 297.475585938 562 262 c 0
 562 257.8046875 561.9453125 253.616210938 561.8359375 249.439453125 c 0
 558.924804688 138.094726562 516.006835938 9 392 9 c 0
 331.91015625 9 288 47.517578125 288 113 c 0
 288 216.877929688 469.874023438 244.395507812 494.720703125 271.014648438 c 0
 499.864257812 276.525390625 502 281.171875 502 288 c 0
 502.0078125 353.420898438 l 1x9cc0
498.814453125 209.986328125 m 1
 421.49609375 171.15625 348 150.7265625 348 105 c 3
 348 68.9861137893 377 59 392 59 c 3
 443.446289062 59 486.543945312 114.490234375 498.814453125 209.986328125 c 1
EndSplineSet
Refer: 54 205 N 1 0 0 1 0 0 2
EndChar

StartChar: Idieresis
Encoding: 207 207 57
Width: 622
VWidth: 0
UnlinkRmOvrlpSave: 1
Flags: W
HStem: -25 50<167.568 315.006> 200.5 49<412.265 469.032> 329 50<162.184 306.534> 598.6 50<188.519 332.47>
VStem: 35 61<100.899 259.79 323.108 461.733> 371 60<84.7453 262.514> 523 60<-67 415>
LayerCount: 2
Fore
SplineSet
553 415 m 1
 583 415 l 1
 583 -67 l 1
 553 -67 l 1
 523 -67 l 1
 523 415 l 1
 553 415 l 1
408 225 m 1
 402.029296875 249.5 l 1
 459.87890625 259.290039062 502.822265625 283.653320312 526.6953125 327.357421875 c 1
 554 317 l 1
 581.3046875 306.642578125 l 1
 548.53515625 246.653320312 486.12109375 212.709960938 413.970703125 200.5 c 1
 408 225 l 1
EndSplineSet
Refer: 4 121 N 1 0 0 1 0 0 2
Ligature2: "multigraphs-1" t period
EndChar

StartChar: Oslash
Encoding: 216 216 60
Width: 544
VWidth: 0
UnlinkRmOvrlpSave: 1
Flags: W
HStem: 371.8 50<186.556 363.444> 683.8 50<186.556 363.444>
VStem: 49.7998 60<489.165 616.435> 440.2 60<489.165 616.435>
LayerCount: 2
Fore
SplineSet
109.799804688 521 m 4
 109.799804688 449.670898438 182.522460938 390 275 390 c 4
 367.477539062 390 440.200195312 449.669921875 440.200195312 521 c 4
 440.200195312 592.330078125 367.477539062 652 275 652 c 4
 182.522460938 652 109.799804688 592.330078125 109.799804688 521 c 4
49.7998046875 521 m 4
 49.7998046875 621.669921875 151.477539062 702 275 702 c 4
 398.522460938 702 500.200195312 621.669921875 500.200195312 521 c 4
 500.200195312 420.330078125 398.522460938 340 275 340 c 4
 151.477539062 340 49.7998046875 420.330078125 49.7998046875 521 c 4
EndSplineSet
EndChar

StartChar: germandbls
Encoding: 223 223 63
Width: 544
VWidth: 0
Flags: W
HStem: -49.4355 46.8711<326.78 356.675>
VStem: 234 60<302.259 362>
LayerCount: 2
Fore
SplineSet
264 362 m 1
 294 362 l 1
 294 290.638671875 232.758789062 231.708984375 191.8359375 205.387695312 c 1
 203.138671875 85.658203125 301.799804688 19.9208984375 374.4453125 -2.564453125 c 1
 364 -26 l 1
 353.5546875 -49.435546875 l 1
 260.891601562 -20.75390625 136.454101562 64.923828125 131.013671875 217.255859375 c 2
 130.490234375 231.899414062 l 1
 145.564453125 239.436523438 l 2
 174.643554688 253.9765625 234 309.27734375 234 362 c 1
 264 362 l 1
EndSplineSet
EndChar

